<svg xmlns="http://www.w3.org/2000/svg" width="1920" height="1080"><path d="M-28,-125L78,-124L301,-124Z" fill="#f2f1f7" stroke="#f2f1f7" stroke-width="1.51"/><path d="M306,1204L77,1205L414,1207Z" fill="#9778b8" stroke="#9778b8" stroke-width="1.51"/><path d="M301,-124L518,-123L739,-124Z" fill="#e2e1ef" stroke="#e2e1ef" stroke-width="1.51"/><path d="M301,-124L739,-124L850,-125Z" fill="#dcdcec" stroke="#dcdcec" stroke-width="1.51"/><path d="M-28,-125L301,-124L850,-125Z" fill="#e9e9f3" stroke="#e9e9f3" stroke-width="1.51"/><path d="M853,1201L740,1200L961,1206Z" fill="#7a5da9" stroke="#7a5da9" stroke-width="1.51"/><path d="M740,1200L414,1207L961,1206Z" fill="#8265ae" stroke="#8265ae" stroke-width="1.51"/><path d="M964,-124L1073,-122L1173,-123Z" fill="#c5c2df" stroke="#c5c2df" stroke-width="1.51"/><path d="M1076,1200L961,1206L1177,1199Z" fill="#6f52a2" stroke="#6f52a2" stroke-width="1.51"/><path d="M964,-124L1173,-123L1286,-124Z" fill="#c1bedd" stroke="#c1bedd" stroke-width="1.51"/><path d="M850,-125L964,-124L1286,-124Z" fill="#c7c4df" stroke="#c7c4df" stroke-width="1.51"/><path d="M1295,1198L1177,1199L1397,1205Z" fill="#63469c" stroke="#63469c" stroke-width="1.51"/><path d="M1177,1199L961,1206L1397,1205Z" fill="#684c9f" stroke="#684c9f" stroke-width="1.51"/><path d="M1286,-124L1398,-117L1506,-120Z" fill="#b7acd4" stroke="#b7acd4" stroke-width="1.51"/><path d="M-28,-125L850,-125L1621,-127Z" fill="#d2d1e6" stroke="#d2d1e6" stroke-width="1.51"/><path d="M850,-125L1286,-124L1621,-127Z" fill="#bcb8da" stroke="#bcb8da" stroke-width="1.51"/><path d="M1286,-124L1506,-120L1621,-127Z" fill="#b4a6d1" stroke="#b4a6d1" stroke-width="1.51"/><path d="M1615,1194L1506,1198L1730,1202Z" fill="#562d90" stroke="#562d90" stroke-width="1.51"/><path d="M1506,1198L1397,1205L1730,1202Z" fill="#583292" stroke="#583292" stroke-width="1.51"/><path d="M1621,-127L1724,-117L1833,-119Z" fill="#ab93c8" stroke="#ab93c8" stroke-width="1.51"/><path d="M1730,1202L1397,1205L1947,1203Z" fill="#52278d" stroke="#52278d" stroke-width="1.51"/><path d="M1840,1194L1730,1202L1947,1203Z" fill="#4d1b88" stroke="#4d1b88" stroke-width="1.51"/><path d="M1621,-127L1833,-119L1949,-121Z" fill="#a98dc6" stroke="#a98dc6" stroke-width="1.51"/><path d="M1951,105L1948,215L2056,204Z" fill="#9577b8" stroke="#9577b8" stroke-width="1.51"/><path d="M1945,653L1956,766L2056,644Z" fill="#694ea0" stroke="#694ea0" stroke-width="1.51"/><path d="M1943,547L1945,653L2056,644Z" fill="#7054a3" stroke="#7054a3" stroke-width="1.51"/><path d="M1951,105L2056,204L2059,95Z" fill="#9677b8" stroke="#9677b8" stroke-width="1.51"/><path d="M1953,-5L1951,105L2059,95Z" fill="#9b7cbb" stroke="#9b7cbb" stroke-width="1.51"/><path d="M1953,-5L2059,95L2060,-17Z" fill="#9d7cbb" stroke="#9d7cbb" stroke-width="1.51"/><path d="M2059,-117L1949,-121L2060,-17Z" fill="#a180be" stroke="#a180be" stroke-width="1.51"/><path d="M1949,-121L1953,-5L2060,-17Z" fill="#a181be" stroke="#a181be" stroke-width="1.51"/><path d="M1943,547L2056,644L2060,537Z" fill="#7255a4" stroke="#7255a4" stroke-width="1.51"/><path d="M1956,425L1943,547L2060,537Z" fill="#795ca8" stroke="#795ca8" stroke-width="1.51"/><path d="M1947,1084L1947,1203L2062,1202Z" fill="#4a1685" stroke="#4a1685" stroke-width="1.51"/><path d="M1947,327L1956,425L2062,322Z" fill="#866ab0" stroke="#866ab0" stroke-width="1.51"/><path d="M2056,204L1948,215L2062,322Z" fill="#8e70b4" stroke="#8e70b4" stroke-width="1.51"/><path d="M1948,215L1947,327L2062,322Z" fill="#8b6fb3" stroke="#8b6fb3" stroke-width="1.51"/><path d="M2059,95L2056,204L2062,322Z" fill="#9071b4" stroke="#9071b4" stroke-width="1.51"/><path d="M1947,1084L2062,1202L2063,1085Z" fill="#4b1886" stroke="#4b1886" stroke-width="1.51"/><path d="M1950,978L1947,1084L2063,1085Z" fill="#51228b" stroke="#51228b" stroke-width="1.51"/><path d="M2056,644L1956,766L2064,762Z" fill="#65499e" stroke="#65499e" stroke-width="1.51"/><path d="M2060,537L2056,644L2064,762Z" fill="#6a4da0" stroke="#6a4da0" stroke-width="1.51"/><path d="M2064,762L1956,766L2065,874Z" fill="#603f98" stroke="#603f98" stroke-width="1.51"/><path d="M1956,766L1954,872L2065,874Z" fill="#5e3c98" stroke="#5e3c98" stroke-width="1.51"/><path d="M2063,1085L2062,1202L2065,973Z" fill="#4b1887" stroke="#4b1887" stroke-width="1.51"/><path d="M1950,978L2063,1085L2065,973Z" fill="#51258c" stroke="#51258c" stroke-width="1.51"/><path d="M2065,874L1954,872L2065,973Z" fill="#583292" stroke="#583292" stroke-width="1.51"/><path d="M1954,872L1950,978L2065,973Z" fill="#572f91" stroke="#572f91" stroke-width="1.51"/><path d="M2059,95L2062,322L2066,424Z" fill="#8a6cb1" stroke="#8a6cb1" stroke-width="1.51"/><path d="M2060,-17L2059,95L2066,424Z" fill="#9374b6" stroke="#9374b6" stroke-width="1.51"/><path d="M2062,322L1956,425L2066,424Z" fill="#8264ad" stroke="#8264ad" stroke-width="1.51"/><path d="M1956,425L2060,537L2066,424Z" fill="#7b5ea9" stroke="#7b5ea9" stroke-width="1.51"/><path d="M2060,537L2064,762L2066,424Z" fill="#7052a2" stroke="#7052a2" stroke-width="1.51"/><path d="M2064,762L2065,874L2066,424Z" fill="#664a9e" stroke="#664a9e" stroke-width="1.51"/><path d="M1840,543L1834,650L1943,547Z" fill="#765ba9" stroke="#765ba9" stroke-width="1.51"/><path d="M1834,424L1840,543L1943,547Z" fill="#7d62ac" stroke="#7d62ac" stroke-width="1.51"/><path d="M1943,547L1834,650L1945,653Z" fill="#7157a6" stroke="#7157a6" stroke-width="1.51"/><path d="M1834,650L1835,762L1945,653Z" fill="#6d53a4" stroke="#6d53a4" stroke-width="1.51"/><path d="M1838,985L1841,1087L1947,1084Z" fill="#54288f" stroke="#54288f" stroke-width="1.51"/><path d="M1841,1087L1840,1194L1947,1084Z" fill="#50218b" stroke="#50218b" stroke-width="1.51"/><path d="M1947,1084L1840,1194L1947,1203Z" fill="#4c1b88" stroke="#4c1b88" stroke-width="1.51"/><path d="M1838,314L1834,424L1947,327Z" fill="#896fb4" stroke="#896fb4" stroke-width="1.51"/><path d="M1838,314L1947,327L1948,215Z" fill="#8e73b6" stroke="#8e73b6" stroke-width="1.51"/><path d="M1846,214L1838,314L1948,215Z" fill="#9277b9" stroke="#9277b9" stroke-width="1.51"/><path d="M1833,-119L1836,-16L1949,-121Z" fill="#a588c2" stroke="#a588c2" stroke-width="1.51"/><path d="M1838,985L1947,1084L1950,978Z" fill="#552a90" stroke="#552a90" stroke-width="1.51"/><path d="M1833,872L1838,985L1950,978Z" fill="#5b3595" stroke="#5b3595" stroke-width="1.51"/><path d="M1846,214L1948,215L1951,105Z" fill="#977aba" stroke="#977aba" stroke-width="1.51"/><path d="M1837,105L1846,214L1951,105Z" fill="#9a7dbd" stroke="#9a7dbd" stroke-width="1.51"/><path d="M1949,-121L1836,-16L1953,-5Z" fill="#a384c1" stroke="#a384c1" stroke-width="1.51"/><path d="M1837,105L1951,105L1953,-5Z" fill="#9d7fbe" stroke="#9d7fbe" stroke-width="1.51"/><path d="M1836,-16L1837,105L1953,-5Z" fill="#a183c0" stroke="#a183c0" stroke-width="1.51"/><path d="M1833,872L1950,978L1954,872Z" fill="#5c3896" stroke="#5c3896" stroke-width="1.51"/><path d="M1835,762L1833,872L1954,872Z" fill="#62429b" stroke="#62429b" stroke-width="1.51"/><path d="M1835,762L1954,872L1956,766Z" fill="#63459c" stroke="#63459c" stroke-width="1.51"/><path d="M1945,653L1835,762L1956,766Z" fill="#684ea1" stroke="#684ea1" stroke-width="1.51"/><path d="M1947,327L1834,424L1956,425Z" fill="#856ab1" stroke="#856ab1" stroke-width="1.51"/><path d="M1834,424L1943,547L1956,425Z" fill="#7f63ad" stroke="#7f63ad" stroke-width="1.51"/><path d="M628,1193L414,1207L740,1200Z" fill="#886bb1" stroke="#886bb1" stroke-width="1.51"/><path d="M1727,875L1728,973L1833,872Z" fill="#61409a" stroke="#61409a" stroke-width="1.51"/><path d="M1726,537L1724,649L1834,650Z" fill="#7760ab" stroke="#7760ab" stroke-width="1.51"/><path d="M1724,649L1724,756L1834,650Z" fill="#715aa9" stroke="#715aa9" stroke-width="1.51"/><path d="M1730,326L1729,435L1834,424Z" fill="#8972b6" stroke="#8972b6" stroke-width="1.51"/><path d="M1727,875L1833,872L1835,762Z" fill="#65469e" stroke="#65469e" stroke-width="1.51"/><path d="M1724,756L1727,875L1835,762Z" fill="#694ea1" stroke="#694ea1" stroke-width="1.51"/><path d="M1834,650L1724,756L1835,762Z" fill="#6c54a5" stroke="#6c54a5" stroke-width="1.51"/><path d="M1726,-4L1736,100L1836,-16Z" fill="#a48ac4" stroke="#a48ac4" stroke-width="1.51"/><path d="M1833,-119L1724,-117L1836,-16Z" fill="#a78cc5" stroke="#a78cc5" stroke-width="1.51"/><path d="M1724,-117L1726,-4L1836,-16Z" fill="#a88ec5" stroke="#a88ec5" stroke-width="1.51"/><path d="M1836,-16L1736,100L1837,105Z" fill="#a186c2" stroke="#a186c2" stroke-width="1.51"/><path d="M1736,100L1730,216L1837,105Z" fill="#9e84c0" stroke="#9e84c0" stroke-width="1.51"/><path d="M1730,326L1834,424L1838,314Z" fill="#8c73b7" stroke="#8c73b7" stroke-width="1.51"/><path d="M1730,216L1730,326L1838,314Z" fill="#937bbb" stroke="#937bbb" stroke-width="1.51"/><path d="M1833,872L1728,973L1838,985Z" fill="#5e3998" stroke="#5e3998" stroke-width="1.51"/><path d="M1728,973L1724,1091L1838,985Z" fill="#5b3494" stroke="#5b3494" stroke-width="1.51"/><path d="M1726,537L1834,650L1840,543Z" fill="#7960ab" stroke="#7960ab" stroke-width="1.51"/><path d="M1834,424L1729,435L1840,543Z" fill="#8269b1" stroke="#8269b1" stroke-width="1.51"/><path d="M1729,435L1726,537L1840,543Z" fill="#8068b0" stroke="#8068b0" stroke-width="1.51"/><path d="M1724,1091L1730,1202L1840,1194Z" fill="#52258c" stroke="#52258c" stroke-width="1.51"/><path d="M1724,1091L1840,1194L1841,1087Z" fill="#53258d" stroke="#53258d" stroke-width="1.51"/><path d="M1838,985L1724,1091L1841,1087Z" fill="#572c91" stroke="#572c91" stroke-width="1.51"/><path d="M1730,216L1838,314L1846,214Z" fill="#957bbb" stroke="#957bbb" stroke-width="1.51"/><path d="M1837,105L1730,216L1846,214Z" fill="#9a80be" stroke="#9a80be" stroke-width="1.51"/><path d="M1621,-127L1620,-13L1724,-117Z" fill="#ac97ca" stroke="#ac97ca" stroke-width="1.51"/><path d="M1615,765L1617,868L1724,756Z" fill="#6d56a5" stroke="#6d56a5" stroke-width="1.51"/><path d="M1614,653L1615,765L1724,756Z" fill="#715faa" stroke="#715faa" stroke-width="1.51"/><path d="M1622,1092L1615,1194L1724,1091Z" fill="#583092" stroke="#583092" stroke-width="1.51"/><path d="M1623,979L1622,1092L1724,1091Z" fill="#5c3796" stroke="#5c3796" stroke-width="1.51"/><path d="M1614,653L1724,756L1724,649Z" fill="#735fab" stroke="#735fab" stroke-width="1.51"/><path d="M1617,532L1614,653L1724,649Z" fill="#7b67af" stroke="#7b67af" stroke-width="1.51"/><path d="M1617,532L1724,649L1726,537Z" fill="#7d68af" stroke="#7d68af" stroke-width="1.51"/><path d="M1724,-117L1620,-13L1726,-4Z" fill="#aa93c8" stroke="#aa93c8" stroke-width="1.51"/><path d="M1620,-13L1613,101L1726,-4Z" fill="#a892c7" stroke="#a892c7" stroke-width="1.51"/><path d="M1724,756L1617,868L1727,875Z" fill="#694fa1" stroke="#694fa1" stroke-width="1.51"/><path d="M1617,868L1623,979L1727,875Z" fill="#65489f" stroke="#65489f" stroke-width="1.51"/><path d="M1727,875L1623,979L1728,973Z" fill="#62419b" stroke="#62419b" stroke-width="1.51"/><path d="M1623,979L1724,1091L1728,973Z" fill="#5e3997" stroke="#5e3997" stroke-width="1.51"/><path d="M1617,532L1726,537L1729,435Z" fill="#836db2" stroke="#836db2" stroke-width="1.51"/><path d="M1618,433L1617,532L1729,435Z" fill="#8774b6" stroke="#8774b6" stroke-width="1.51"/><path d="M1724,1091L1615,1194L1730,1202Z" fill="#552b8f" stroke="#552b8f" stroke-width="1.51"/><path d="M1614,205L1624,319L1730,216Z" fill="#9985c1" stroke="#9985c1" stroke-width="1.51"/><path d="M1618,433L1729,435L1730,326Z" fill="#8c77b8" stroke="#8c77b8" stroke-width="1.51"/><path d="M1624,319L1618,433L1730,326Z" fill="#907dbc" stroke="#907dbc" stroke-width="1.51"/><path d="M1730,216L1624,319L1730,326Z" fill="#9480bd" stroke="#9480bd" stroke-width="1.51"/><path d="M1726,-4L1613,101L1736,100Z" fill="#a58ec5" stroke="#a58ec5" stroke-width="1.51"/><path d="M1614,205L1730,216L1736,100Z" fill="#9e89c2" stroke="#9e89c2" stroke-width="1.51"/><path d="M1613,101L1614,205L1736,100Z" fill="#a28dc5" stroke="#a28dc5" stroke-width="1.51"/><path d="M515,1195L414,1207L628,1193Z" fill="#8c6eb3" stroke="#8c6eb3" stroke-width="1.51"/><path d="M1515,-5L1505,93L1613,101Z" fill="#aa99cb" stroke="#aa99cb" stroke-width="1.51"/><path d="M1505,93L1513,202L1613,101Z" fill="#a695c9" stroke="#a695c9" stroke-width="1.51"/><path d="M1515,650L1514,766L1614,653Z" fill="#7769af" stroke="#7769af" stroke-width="1.51"/><path d="M1613,101L1513,202L1614,205Z" fill="#a291c6" stroke="#a291c6" stroke-width="1.51"/><path d="M1513,202L1516,316L1614,205Z" fill="#9d8ec4" stroke="#9d8ec4" stroke-width="1.51"/><path d="M1506,1094L1506,1198L1615,1194Z" fill="#5b3594" stroke="#5b3594" stroke-width="1.51"/><path d="M1614,653L1514,766L1615,765Z" fill="#7363ac" stroke="#7363ac" stroke-width="1.51"/><path d="M1515,650L1614,653L1617,532Z" fill="#7d6cb1" stroke="#7d6cb1" stroke-width="1.51"/><path d="M1506,541L1515,650L1617,532Z" fill="#8172b4" stroke="#8172b4" stroke-width="1.51"/><path d="M1510,430L1506,541L1617,532Z" fill="#8878b8" stroke="#8878b8" stroke-width="1.51"/><path d="M1615,765L1514,766L1617,868Z" fill="#6f5aa8" stroke="#6f5aa8" stroke-width="1.51"/><path d="M1514,766L1510,872L1617,868Z" fill="#6e58a6" stroke="#6e58a6" stroke-width="1.51"/><path d="M1510,430L1617,532L1618,433Z" fill="#8a79b8" stroke="#8a79b8" stroke-width="1.51"/><path d="M1516,316L1510,430L1618,433Z" fill="#9182bd" stroke="#9182bd" stroke-width="1.51"/><path d="M1515,-5L1613,101L1620,-13Z" fill="#aa98ca" stroke="#aa98ca" stroke-width="1.51"/><path d="M1506,-120L1515,-5L1620,-13Z" fill="#af9dcc" stroke="#af9dcc" stroke-width="1.51"/><path d="M1506,-120L1620,-13L1621,-127Z" fill="#af9ccc" stroke="#af9ccc" stroke-width="1.51"/><path d="M1506,1094L1615,1194L1622,1092Z" fill="#5b3695" stroke="#5b3695" stroke-width="1.51"/><path d="M1505,982L1506,1094L1622,1092Z" fill="#613e9a" stroke="#613e9a" stroke-width="1.51"/><path d="M1617,868L1510,872L1623,979Z" fill="#684da1" stroke="#684da1" stroke-width="1.51"/><path d="M1510,872L1505,982L1623,979Z" fill="#674ba0" stroke="#674ba0" stroke-width="1.51"/><path d="M1505,982L1622,1092L1623,979Z" fill="#62409b" stroke="#62409b" stroke-width="1.51"/><path d="M1516,316L1618,433L1624,319Z" fill="#9383be" stroke="#9383be" stroke-width="1.51"/><path d="M1614,205L1516,316L1624,319Z" fill="#9988c2" stroke="#9988c2" stroke-width="1.51"/><path d="M-33,1197L-134,1196L77,1205Z" fill="#a180bd" stroke="#a180bd" stroke-width="1.51"/><path d="M1403,975L1400,1086L1505,982Z" fill="#674ba1" stroke="#674ba1" stroke-width="1.51"/><path d="M1406,-7L1397,101L1505,93Z" fill="#ada1cf" stroke="#ada1cf" stroke-width="1.51"/><path d="M1397,101L1404,204L1505,93Z" fill="#a99ecc" stroke="#a99ecc" stroke-width="1.51"/><path d="M1401,436L1393,545L1506,541Z" fill="#8b80bc" stroke="#8b80bc" stroke-width="1.51"/><path d="M1393,545L1396,647L1506,541Z" fill="#857ab8" stroke="#857ab8" stroke-width="1.51"/><path d="M1398,-117L1406,-7L1506,-120Z" fill="#b4a7d2" stroke="#b4a7d2" stroke-width="1.51"/><path d="M1505,982L1400,1086L1506,1094Z" fill="#63449c" stroke="#63449c" stroke-width="1.51"/><path d="M1506,1094L1400,1086L1506,1198Z" fill="#5f3e99" stroke="#5f3e99" stroke-width="1.51"/><path d="M1400,1086L1397,1205L1506,1198Z" fill="#5f3e98" stroke="#5f3e98" stroke-width="1.51"/><path d="M1403,975L1505,982L1510,872Z" fill="#6a51a3" stroke="#6a51a3" stroke-width="1.51"/><path d="M1401,869L1403,975L1510,872Z" fill="#6e58a6" stroke="#6e58a6" stroke-width="1.51"/><path d="M1401,436L1506,541L1510,430Z" fill="#8d81bc" stroke="#8d81bc" stroke-width="1.51"/><path d="M1399,313L1401,436L1510,430Z" fill="#958bc2" stroke="#958bc2" stroke-width="1.51"/><path d="M1505,93L1404,204L1513,202Z" fill="#a699ca" stroke="#a699ca" stroke-width="1.51"/><path d="M1401,869L1510,872L1514,766Z" fill="#715da9" stroke="#715da9" stroke-width="1.51"/><path d="M1401,756L1401,869L1514,766Z" fill="#7565ae" stroke="#7565ae" stroke-width="1.51"/><path d="M1506,541L1396,647L1515,650Z" fill="#8174b5" stroke="#8174b5" stroke-width="1.51"/><path d="M1401,756L1514,766L1515,650Z" fill="#776bb1" stroke="#776bb1" stroke-width="1.51"/><path d="M1396,647L1401,756L1515,650Z" fill="#7c71b4" stroke="#7c71b4" stroke-width="1.51"/><path d="M1506,-120L1406,-7L1515,-5Z" fill="#b1a3d0" stroke="#b1a3d0" stroke-width="1.51"/><path d="M1406,-7L1505,93L1515,-5Z" fill="#aea0ce" stroke="#aea0ce" stroke-width="1.51"/><path d="M1399,313L1510,430L1516,316Z" fill="#978bc2" stroke="#978bc2" stroke-width="1.51"/><path d="M1513,202L1404,204L1516,316Z" fill="#a093c7" stroke="#a093c7" stroke-width="1.51"/><path d="M1404,204L1399,313L1516,316Z" fill="#9e94c7" stroke="#9e94c7" stroke-width="1.51"/><path d="M1294,434L1285,546L1393,545Z" fill="#8f88c0" stroke="#8f88c0" stroke-width="1.51"/><path d="M1285,546L1291,650L1393,545Z" fill="#8982bd" stroke="#8982bd" stroke-width="1.51"/><path d="M1393,545L1291,650L1396,647Z" fill="#857dba" stroke="#857dba" stroke-width="1.51"/><path d="M1296,-4L1291,96L1397,101Z" fill="#b1aad3" stroke="#b1aad3" stroke-width="1.51"/><path d="M1291,96L1295,205L1397,101Z" fill="#ada6d1" stroke="#ada6d1" stroke-width="1.51"/><path d="M1286,-124L1296,-4L1398,-117Z" fill="#b8b0d7" stroke="#b8b0d7" stroke-width="1.51"/><path d="M1290,314L1294,434L1399,313Z" fill="#9c97c9" stroke="#9c97c9" stroke-width="1.51"/><path d="M1295,205L1290,314L1399,313Z" fill="#a29dcc" stroke="#a29dcc" stroke-width="1.51"/><path d="M1295,1198L1397,1205L1400,1086Z" fill="#62439b" stroke="#62439b" stroke-width="1.51"/><path d="M1285,1095L1295,1198L1400,1086Z" fill="#65499f" stroke="#65499f" stroke-width="1.51"/><path d="M1295,981L1285,1095L1400,1086Z" fill="#6950a2" stroke="#6950a2" stroke-width="1.51"/><path d="M1399,313L1294,434L1401,436Z" fill="#9790c5" stroke="#9790c5" stroke-width="1.51"/><path d="M1294,434L1393,545L1401,436Z" fill="#9189c1" stroke="#9189c1" stroke-width="1.51"/><path d="M1396,647L1291,650L1401,756Z" fill="#7f77b7" stroke="#7f77b7" stroke-width="1.51"/><path d="M1291,650L1285,761L1401,756Z" fill="#7d76b7" stroke="#7d76b7" stroke-width="1.51"/><path d="M1401,756L1285,761L1401,869Z" fill="#786bb1" stroke="#786bb1" stroke-width="1.51"/><path d="M1285,761L1283,872L1401,869Z" fill="#7769af" stroke="#7769af" stroke-width="1.51"/><path d="M1283,872L1295,981L1401,869Z" fill="#7260ab" stroke="#7260ab" stroke-width="1.51"/><path d="M1401,869L1295,981L1403,975Z" fill="#6e59a7" stroke="#6e59a7" stroke-width="1.51"/><path d="M1295,981L1400,1086L1403,975Z" fill="#6a51a3" stroke="#6a51a3" stroke-width="1.51"/><path d="M1295,205L1399,313L1404,204Z" fill="#a49ccc" stroke="#a49ccc" stroke-width="1.51"/><path d="M1397,101L1295,205L1404,204Z" fill="#a9a1cf" stroke="#a9a1cf" stroke-width="1.51"/><path d="M1398,-117L1296,-4L1406,-7Z" fill="#b5acd4" stroke="#b5acd4" stroke-width="1.51"/><path d="M1296,-4L1397,101L1406,-7Z" fill="#b2a8d3" stroke="#b2a8d3" stroke-width="1.51"/><path d="M1181,863L1181,977L1283,872Z" fill="#7768af" stroke="#7768af" stroke-width="1.51"/><path d="M1178,538L1180,644L1285,546Z" fill="#8e8ac1" stroke="#8e8ac1" stroke-width="1.51"/><path d="M1179,1084L1177,1199L1285,1095Z" fill="#6b50a3" stroke="#6b50a3" stroke-width="1.51"/><path d="M1181,863L1283,872L1285,761Z" fill="#796fb2" stroke="#796fb2" stroke-width="1.51"/><path d="M1183,754L1181,863L1285,761Z" fill="#7d75b6" stroke="#7d75b6" stroke-width="1.51"/><path d="M1173,-123L1180,-16L1286,-124Z" fill="#bdb9da" stroke="#bdb9da" stroke-width="1.51"/><path d="M1176,216L1182,314L1290,314Z" fill="#a6a4d0" stroke="#a6a4d0" stroke-width="1.51"/><path d="M1182,314L1178,423L1290,314Z" fill="#a19fcd" stroke="#a19fcd" stroke-width="1.51"/><path d="M1285,546L1180,644L1291,650Z" fill="#8985be" stroke="#8985be" stroke-width="1.51"/><path d="M1183,754L1285,761L1291,650Z" fill="#807cba" stroke="#807cba" stroke-width="1.51"/><path d="M1180,644L1183,754L1291,650Z" fill="#8581bc" stroke="#8581bc" stroke-width="1.51"/><path d="M1180,-16L1182,106L1291,96Z" fill="#b6b2d7" stroke="#b6b2d7" stroke-width="1.51"/><path d="M1178,538L1285,546L1294,434Z" fill="#928ec3" stroke="#928ec3" stroke-width="1.51"/><path d="M1178,423L1178,538L1294,434Z" fill="#9794c6" stroke="#9794c6" stroke-width="1.51"/><path d="M1290,314L1178,423L1294,434Z" fill="#9c99ca" stroke="#9c99ca" stroke-width="1.51"/><path d="M1176,216L1290,314L1295,205Z" fill="#a8a5d0" stroke="#a8a5d0" stroke-width="1.51"/><path d="M1291,96L1182,106L1295,205Z" fill="#afacd3" stroke="#afacd3" stroke-width="1.51"/><path d="M1182,106L1176,216L1295,205Z" fill="#afacd4" stroke="#afacd4" stroke-width="1.51"/><path d="M1283,872L1181,977L1295,981Z" fill="#7361ac" stroke="#7361ac" stroke-width="1.51"/><path d="M1179,1084L1285,1095L1295,981Z" fill="#6d55a6" stroke="#6d55a6" stroke-width="1.51"/><path d="M1181,977L1179,1084L1295,981Z" fill="#705ba9" stroke="#705ba9" stroke-width="1.51"/><path d="M1285,1095L1177,1199L1295,1198Z" fill="#674ca0" stroke="#674ca0" stroke-width="1.51"/><path d="M1180,-16L1291,96L1296,-4Z" fill="#b6b2d6" stroke="#b6b2d6" stroke-width="1.51"/><path d="M1286,-124L1180,-16L1296,-4Z" fill="#bab5d9" stroke="#bab5d9" stroke-width="1.51"/><path d="M196,1198L77,1205L306,1204Z" fill="#9a7aba" stroke="#9a7aba" stroke-width="1.51"/><path d="M518,-123L626,-114L739,-124Z" fill="#dcdcec" stroke="#dcdcec" stroke-width="1.51"/><path d="M1063,1096L1076,1200L1177,1199Z" fill="#6f53a3" stroke="#6f53a3" stroke-width="1.51"/><path d="M1065,326L1064,432L1178,423Z" fill="#a3a1cc" stroke="#a3a1cc" stroke-width="1.51"/><path d="M1178,423L1064,432L1178,538Z" fill="#9b98c8" stroke="#9b98c8" stroke-width="1.51"/><path d="M1064,432L1069,544L1178,538Z" fill="#9a96c7" stroke="#9a96c7" stroke-width="1.51"/><path d="M1063,1096L1177,1199L1179,1084Z" fill="#6e54a5" stroke="#6e54a5" stroke-width="1.51"/><path d="M1069,974L1063,1096L1179,1084Z" fill="#745caa" stroke="#745caa" stroke-width="1.51"/><path d="M1173,-123L1073,-122L1180,-16Z" fill="#c0bddc" stroke="#c0bddc" stroke-width="1.51"/><path d="M1073,-122L1064,-14L1180,-16Z" fill="#c1bddc" stroke="#c1bddc" stroke-width="1.51"/><path d="M1064,-14L1068,93L1180,-16Z" fill="#bebada" stroke="#bebada" stroke-width="1.51"/><path d="M1178,538L1069,544L1180,644Z" fill="#928ec2" stroke="#928ec2" stroke-width="1.51"/><path d="M1069,544L1067,653L1180,644Z" fill="#918cc2" stroke="#918cc2" stroke-width="1.51"/><path d="M1069,863L1069,974L1181,863Z" fill="#7d6db2" stroke="#7d6db2" stroke-width="1.51"/><path d="M1076,765L1069,863L1181,863Z" fill="#8176b7" stroke="#8176b7" stroke-width="1.51"/><path d="M1181,863L1069,974L1181,977Z" fill="#7967ae" stroke="#7967ae" stroke-width="1.51"/><path d="M1069,974L1179,1084L1181,977Z" fill="#755fab" stroke="#755fab" stroke-width="1.51"/><path d="M1176,216L1073,210L1182,314Z" fill="#adaad2" stroke="#adaad2" stroke-width="1.51"/><path d="M1073,210L1065,326L1182,314Z" fill="#acaad2" stroke="#acaad2" stroke-width="1.51"/><path d="M1065,326L1178,423L1182,314Z" fill="#a4a3ce" stroke="#a4a3ce" stroke-width="1.51"/><path d="M1073,210L1176,216L1182,106Z" fill="#b3b0d5" stroke="#b3b0d5" stroke-width="1.51"/><path d="M1068,93L1073,210L1182,106Z" fill="#b7b4d7" stroke="#b7b4d7" stroke-width="1.51"/><path d="M1180,-16L1068,93L1182,106Z" fill="#bab6d8" stroke="#bab6d8" stroke-width="1.51"/><path d="M1180,644L1067,653L1183,754Z" fill="#8985be" stroke="#8985be" stroke-width="1.51"/><path d="M1067,653L1076,765L1183,754Z" fill="#8783bd" stroke="#8783bd" stroke-width="1.51"/><path d="M1076,765L1181,863L1183,754Z" fill="#8178b8" stroke="#8178b8" stroke-width="1.51"/><path d="M963,983L956,1085L1063,1096Z" fill="#7b62ac" stroke="#7b62ac" stroke-width="1.51"/><path d="M956,1085L961,1206L1063,1096Z" fill="#775ba8" stroke="#775ba8" stroke-width="1.51"/><path d="M964,-124L956,-10L1064,-14Z" fill="#c6c3de" stroke="#c6c3de" stroke-width="1.51"/><path d="M955,434L961,533L1064,432Z" fill="#a39fcb" stroke="#a39fcb" stroke-width="1.51"/><path d="M955,434L1064,432L1065,326Z" fill="#a7a4ce" stroke="#a7a4ce" stroke-width="1.51"/><path d="M955,320L955,434L1065,326Z" fill="#abaad1" stroke="#abaad1" stroke-width="1.51"/><path d="M954,210L955,320L1065,326Z" fill="#b2b0d4" stroke="#b2b0d4" stroke-width="1.51"/><path d="M957,653L963,766L1067,653Z" fill="#908bc1" stroke="#908bc1" stroke-width="1.51"/><path d="M1064,-14L956,-10L1068,93Z" fill="#c2bedc" stroke="#c2bedc" stroke-width="1.51"/><path d="M956,-10L952,102L1068,93Z" fill="#c1bedc" stroke="#c1bedc" stroke-width="1.51"/><path d="M1064,432L961,533L1069,544Z" fill="#9e9ac9" stroke="#9e9ac9" stroke-width="1.51"/><path d="M957,653L1067,653L1069,544Z" fill="#9490c4" stroke="#9490c4" stroke-width="1.51"/><path d="M961,533L957,653L1069,544Z" fill="#9995c6" stroke="#9995c6" stroke-width="1.51"/><path d="M963,766L961,876L1069,863Z" fill="#867bb9" stroke="#867bb9" stroke-width="1.51"/><path d="M963,983L1063,1096L1069,974Z" fill="#7b64ae" stroke="#7b64ae" stroke-width="1.51"/><path d="M1069,863L961,876L1069,974Z" fill="#8071b3" stroke="#8071b3" stroke-width="1.51"/><path d="M961,876L963,983L1069,974Z" fill="#806eb2" stroke="#806eb2" stroke-width="1.51"/><path d="M1068,93L952,102L1073,210Z" fill="#bbb8d9" stroke="#bbb8d9" stroke-width="1.51"/><path d="M952,102L954,210L1073,210Z" fill="#bbb8d8" stroke="#bbb8d8" stroke-width="1.51"/><path d="M954,210L1065,326L1073,210Z" fill="#b3b1d5" stroke="#b3b1d5" stroke-width="1.51"/><path d="M964,-124L1064,-14L1073,-122Z" fill="#c6c2de" stroke="#c6c2de" stroke-width="1.51"/><path d="M1063,1096L961,1206L1076,1200Z" fill="#7256a5" stroke="#7256a5" stroke-width="1.51"/><path d="M963,766L1069,863L1076,765Z" fill="#877dba" stroke="#877dba" stroke-width="1.51"/><path d="M1067,653L963,766L1076,765Z" fill="#8b86bf" stroke="#8b86bf" stroke-width="1.51"/><path d="M301,-124L415,-113L518,-123Z" fill="#e7e7f2" stroke="#e7e7f2" stroke-width="1.51"/><path d="M852,104L849,205L952,102Z" fill="#c2c1dd" stroke="#c2c1dd" stroke-width="1.51"/><path d="M952,102L849,205L954,210Z" fill="#bebddb" stroke="#bebddb" stroke-width="1.51"/><path d="M849,205L847,321L954,210Z" fill="#bab9d9" stroke="#bab9d9" stroke-width="1.51"/><path d="M845,423L855,543L955,434Z" fill="#a8a5ce" stroke="#a8a5ce" stroke-width="1.51"/><path d="M954,210L847,321L955,320Z" fill="#b5b4d7" stroke="#b5b4d7" stroke-width="1.51"/><path d="M845,423L955,434L955,320Z" fill="#acabd2" stroke="#acabd2" stroke-width="1.51"/><path d="M847,321L845,423L955,320Z" fill="#b1b0d5" stroke="#b1b0d5" stroke-width="1.51"/><path d="M844,1094L853,1201L956,1085Z" fill="#7c61ac" stroke="#7c61ac" stroke-width="1.51"/><path d="M848,978L844,1094L956,1085Z" fill="#8068b0" stroke="#8068b0" stroke-width="1.51"/><path d="M852,104L952,102L956,-10Z" fill="#c5c2de" stroke="#c5c2de" stroke-width="1.51"/><path d="M847,-15L852,104L956,-10Z" fill="#c9c6e0" stroke="#c9c6e0" stroke-width="1.51"/><path d="M850,-125L847,-15L956,-10Z" fill="#ccc9e2" stroke="#ccc9e2" stroke-width="1.51"/><path d="M855,543L850,654L957,653Z" fill="#9c98c8" stroke="#9c98c8" stroke-width="1.51"/><path d="M850,654L848,755L957,653Z" fill="#9692c5" stroke="#9692c5" stroke-width="1.51"/><path d="M956,1085L853,1201L961,1206Z" fill="#785ca8" stroke="#785ca8" stroke-width="1.51"/><path d="M843,870L848,978L961,876Z" fill="#8878b8" stroke="#8878b8" stroke-width="1.51"/><path d="M855,543L957,653L961,533Z" fill="#9d99c8" stroke="#9d99c8" stroke-width="1.51"/><path d="M955,434L855,543L961,533Z" fill="#a39fcc" stroke="#a39fcc" stroke-width="1.51"/><path d="M957,653L848,755L963,766Z" fill="#918dc2" stroke="#918dc2" stroke-width="1.51"/><path d="M843,870L961,876L963,766Z" fill="#8a7fbb" stroke="#8a7fbb" stroke-width="1.51"/><path d="M848,755L843,870L963,766Z" fill="#8f86bf" stroke="#8f86bf" stroke-width="1.51"/><path d="M961,876L848,978L963,983Z" fill="#8471b4" stroke="#8471b4" stroke-width="1.51"/><path d="M848,978L956,1085L963,983Z" fill="#8069b1" stroke="#8069b1" stroke-width="1.51"/><path d="M850,-125L956,-10L964,-124Z" fill="#ccc8e2" stroke="#ccc8e2" stroke-width="1.51"/><path d="M742,766L733,866L843,870Z" fill="#9288c0" stroke="#9288c0" stroke-width="1.51"/><path d="M733,866L739,985L843,870Z" fill="#8e7fbc" stroke="#8e7fbc" stroke-width="1.51"/><path d="M738,1086L740,1200L844,1094Z" fill="#8267af" stroke="#8267af" stroke-width="1.51"/><path d="M739,985L738,1086L844,1094Z" fill="#866db3" stroke="#866db3" stroke-width="1.51"/><path d="M739,313L740,436L845,423Z" fill="#b4b3d7" stroke="#b4b3d7" stroke-width="1.51"/><path d="M739,313L845,423L847,321Z" fill="#b5b5d7" stroke="#b5b5d7" stroke-width="1.51"/><path d="M746,205L739,313L847,321Z" fill="#bdbddc" stroke="#bdbddc" stroke-width="1.51"/><path d="M739,-124L745,-6L847,-15Z" fill="#d2d0e6" stroke="#d2d0e6" stroke-width="1.51"/><path d="M739,985L844,1094L848,978Z" fill="#8670b4" stroke="#8670b4" stroke-width="1.51"/><path d="M843,870L739,985L848,978Z" fill="#8a78b8" stroke="#8a78b8" stroke-width="1.51"/><path d="M742,766L843,870L848,755Z" fill="#928ac1" stroke="#928ac1" stroke-width="1.51"/><path d="M737,651L742,766L848,755Z" fill="#9896c7" stroke="#9896c7" stroke-width="1.51"/><path d="M746,205L847,321L849,205Z" fill="#bebedc" stroke="#bebedc" stroke-width="1.51"/><path d="M739,-124L847,-15L850,-125Z" fill="#d1cfe5" stroke="#d1cfe5" stroke-width="1.51"/><path d="M737,651L848,755L850,654Z" fill="#9997c8" stroke="#9997c8" stroke-width="1.51"/><path d="M737,543L737,651L850,654Z" fill="#a19fcb" stroke="#a19fcb" stroke-width="1.51"/><path d="M847,-15L745,-6L852,104Z" fill="#cccae3" stroke="#cccae3" stroke-width="1.51"/><path d="M745,-6L744,99L852,104Z" fill="#cccbe3" stroke="#cccbe3" stroke-width="1.51"/><path d="M746,205L849,205L852,104Z" fill="#c4c3df" stroke="#c4c3df" stroke-width="1.51"/><path d="M744,99L746,205L852,104Z" fill="#c8c7e1" stroke="#c8c7e1" stroke-width="1.51"/><path d="M844,1094L740,1200L853,1201Z" fill="#7e62ac" stroke="#7e62ac" stroke-width="1.51"/><path d="M845,423L740,436L855,543Z" fill="#acaad1" stroke="#acaad1" stroke-width="1.51"/><path d="M740,436L737,543L855,543Z" fill="#aaa8d0" stroke="#aaa8d0" stroke-width="1.51"/><path d="M737,543L850,654L855,543Z" fill="#a29fcc" stroke="#a29fcc" stroke-width="1.51"/><path d="M78,-124L185,-114L301,-124Z" fill="#f0eff6" stroke="#f0eff6" stroke-width="1.51"/><path d="M623,868L636,978L733,866Z" fill="#9486bf" stroke="#9486bf" stroke-width="1.51"/><path d="M624,753L623,868L733,866Z" fill="#988fc4" stroke="#988fc4" stroke-width="1.51"/><path d="M629,644L624,753L737,651Z" fill="#a2a0cd" stroke="#a2a0cd" stroke-width="1.51"/><path d="M629,644L737,651L737,543Z" fill="#a6a3ce" stroke="#a6a3ce" stroke-width="1.51"/><path d="M626,535L629,644L737,543Z" fill="#aba9d0" stroke="#aba9d0" stroke-width="1.51"/><path d="M636,978L634,1094L738,1086Z" fill="#8c74b7" stroke="#8c74b7" stroke-width="1.51"/><path d="M630,208L634,323L739,313Z" fill="#c2c3df" stroke="#c2c3df" stroke-width="1.51"/><path d="M626,-114L630,-14L739,-124Z" fill="#d9d9ea" stroke="#d9d9ea" stroke-width="1.51"/><path d="M636,978L738,1086L739,985Z" fill="#8c76b8" stroke="#8c76b8" stroke-width="1.51"/><path d="M733,866L636,978L739,985Z" fill="#907fbc" stroke="#907fbc" stroke-width="1.51"/><path d="M626,535L737,543L740,436Z" fill="#aeadd3" stroke="#aeadd3" stroke-width="1.51"/><path d="M633,432L626,535L740,436Z" fill="#b3b2d6" stroke="#b3b2d6" stroke-width="1.51"/><path d="M739,313L634,323L740,436Z" fill="#bbbbdb" stroke="#bbbbdb" stroke-width="1.51"/><path d="M634,323L633,432L740,436Z" fill="#b9b9da" stroke="#b9b9da" stroke-width="1.51"/><path d="M738,1086L634,1094L740,1200Z" fill="#866bb2" stroke="#866bb2" stroke-width="1.51"/><path d="M634,1094L628,1193L740,1200Z" fill="#866ab1" stroke="#866ab1" stroke-width="1.51"/><path d="M737,651L624,753L742,766Z" fill="#9c9aca" stroke="#9c9aca" stroke-width="1.51"/><path d="M624,753L733,866L742,766Z" fill="#9891c5" stroke="#9891c5" stroke-width="1.51"/><path d="M634,93L630,208L744,99Z" fill="#cecee5" stroke="#cecee5" stroke-width="1.51"/><path d="M739,-124L630,-14L745,-6Z" fill="#d6d5e9" stroke="#d6d5e9" stroke-width="1.51"/><path d="M634,93L744,99L745,-6Z" fill="#d0d0e5" stroke="#d0d0e5" stroke-width="1.51"/><path d="M630,-14L634,93L745,-6Z" fill="#d4d4e8" stroke="#d4d4e8" stroke-width="1.51"/><path d="M744,99L630,208L746,205Z" fill="#c9cae3" stroke="#c9cae3" stroke-width="1.51"/><path d="M630,208L739,313L746,205Z" fill="#c4c4e0" stroke="#c4c4e0" stroke-width="1.51"/><path d="M513,760L515,865L623,868Z" fill="#9e94c7" stroke="#9e94c7" stroke-width="1.51"/><path d="M515,865L518,980L623,868Z" fill="#998ac2" stroke="#998ac2" stroke-width="1.51"/><path d="M513,760L623,868L624,753Z" fill="#9e97c8" stroke="#9e97c8" stroke-width="1.51"/><path d="M519,647L513,760L624,753Z" fill="#a4a2ce" stroke="#a4a2ce" stroke-width="1.51"/><path d="M518,-123L524,-7L626,-114Z" fill="#dedeed" stroke="#dedeed" stroke-width="1.51"/><path d="M515,433L521,546L626,535Z" fill="#b6b5d7" stroke="#b6b5d7" stroke-width="1.51"/><path d="M519,647L624,753L629,644Z" fill="#a5a3cf" stroke="#a5a3cf" stroke-width="1.51"/><path d="M626,535L521,546L629,644Z" fill="#aeacd2" stroke="#aeacd2" stroke-width="1.51"/><path d="M521,546L519,647L629,644Z" fill="#adabd2" stroke="#adabd2" stroke-width="1.51"/><path d="M626,-114L524,-7L630,-14Z" fill="#dbdbeb" stroke="#dbdbeb" stroke-width="1.51"/><path d="M519,207L518,316L630,208Z" fill="#cccce4" stroke="#cccce4" stroke-width="1.51"/><path d="M524,97L519,207L630,208Z" fill="#d1d1e7" stroke="#d1d1e7" stroke-width="1.51"/><path d="M515,433L626,535L633,432Z" fill="#b7b6d8" stroke="#b7b6d8" stroke-width="1.51"/><path d="M515,433L633,432L634,323Z" fill="#bdbddc" stroke="#bdbddc" stroke-width="1.51"/><path d="M518,316L515,433L634,323Z" fill="#c2c3df" stroke="#c2c3df" stroke-width="1.51"/><path d="M630,208L518,316L634,323Z" fill="#c6c7e1" stroke="#c6c7e1" stroke-width="1.51"/><path d="M630,-14L524,-7L634,93Z" fill="#d8d7ea" stroke="#d8d7ea" stroke-width="1.51"/><path d="M524,-7L524,97L634,93Z" fill="#d7d7ea" stroke="#d7d7ea" stroke-width="1.51"/><path d="M524,97L630,208L634,93Z" fill="#d2d1e7" stroke="#d2d1e7" stroke-width="1.51"/><path d="M515,1195L628,1193L634,1094Z" fill="#8a6eb3" stroke="#8a6eb3" stroke-width="1.51"/><path d="M513,1084L515,1195L634,1094Z" fill="#8e73b6" stroke="#8e73b6" stroke-width="1.51"/><path d="M623,868L518,980L636,978Z" fill="#9684bf" stroke="#9684bf" stroke-width="1.51"/><path d="M513,1084L634,1094L636,978Z" fill="#9078b9" stroke="#9078b9" stroke-width="1.51"/><path d="M518,980L513,1084L636,978Z" fill="#947ebc" stroke="#947ebc" stroke-width="1.51"/><path d="M411,978L411,1083L513,1084Z" fill="#977fbd" stroke="#977fbd" stroke-width="1.51"/><path d="M416,655L410,756L513,760Z" fill="#a9a7d1" stroke="#a9a7d1" stroke-width="1.51"/><path d="M513,1084L411,1083L515,1195Z" fill="#9276b9" stroke="#9276b9" stroke-width="1.51"/><path d="M411,1083L414,1207L515,1195Z" fill="#9174b7" stroke="#9174b7" stroke-width="1.51"/><path d="M404,423L404,541L515,433Z" fill="#bfbedc" stroke="#bfbedc" stroke-width="1.51"/><path d="M403,868L411,978L515,865Z" fill="#9f90c5" stroke="#9f90c5" stroke-width="1.51"/><path d="M513,760L410,756L515,865Z" fill="#a49ccb" stroke="#a49ccb" stroke-width="1.51"/><path d="M410,756L403,868L515,865Z" fill="#a499ca" stroke="#a499ca" stroke-width="1.51"/><path d="M415,210L403,313L518,316Z" fill="#cecfe6" stroke="#cecfe6" stroke-width="1.51"/><path d="M404,423L515,433L518,316Z" fill="#c3c3e0" stroke="#c3c3e0" stroke-width="1.51"/><path d="M403,313L404,423L518,316Z" fill="#c9c9e3" stroke="#c9c9e3" stroke-width="1.51"/><path d="M515,865L411,978L518,980Z" fill="#9c89c2" stroke="#9c89c2" stroke-width="1.51"/><path d="M411,978L513,1084L518,980Z" fill="#9881be" stroke="#9881be" stroke-width="1.51"/><path d="M416,655L513,760L519,647Z" fill="#aba8d1" stroke="#aba8d1" stroke-width="1.51"/><path d="M415,210L518,316L519,207Z" fill="#d0d0e6" stroke="#d0d0e6" stroke-width="1.51"/><path d="M515,433L404,541L521,546Z" fill="#bab8d9" stroke="#bab8d9" stroke-width="1.51"/><path d="M416,655L519,647L521,546Z" fill="#b0aed4" stroke="#b0aed4" stroke-width="1.51"/><path d="M404,541L416,655L521,546Z" fill="#b5b2d6" stroke="#b5b2d6" stroke-width="1.51"/><path d="M416,-10L407,95L524,97Z" fill="#dddded" stroke="#dddded" stroke-width="1.51"/><path d="M415,210L519,207L524,97Z" fill="#d5d5e9" stroke="#d5d5e9" stroke-width="1.51"/><path d="M407,95L415,210L524,97Z" fill="#d9d9eb" stroke="#d9d9eb" stroke-width="1.51"/><path d="M518,-123L415,-113L524,-7Z" fill="#e2e2ef" stroke="#e2e2ef" stroke-width="1.51"/><path d="M415,-113L416,-10L524,-7Z" fill="#e2e2ef" stroke="#e2e2ef" stroke-width="1.51"/><path d="M416,-10L524,97L524,-7Z" fill="#dddded" stroke="#dddded" stroke-width="1.51"/><path d="M294,211L299,322L403,313Z" fill="#d3d3e8" stroke="#d3d3e8" stroke-width="1.51"/><path d="M295,762L301,870L403,868Z" fill="#a89dcc" stroke="#a89dcc" stroke-width="1.51"/><path d="M296,430L303,540L404,423Z" fill="#c4c3de" stroke="#c4c3de" stroke-width="1.51"/><path d="M403,313L299,322L404,423Z" fill="#cccce4" stroke="#cccce4" stroke-width="1.51"/><path d="M299,322L296,430L404,423Z" fill="#cacae3" stroke="#cacae3" stroke-width="1.51"/><path d="M404,423L303,540L404,541Z" fill="#bfbedb" stroke="#bfbedb" stroke-width="1.51"/><path d="M303,540L293,652L404,541Z" fill="#bbb8d9" stroke="#bbb8d9" stroke-width="1.51"/><path d="M294,-17L306,106L407,95Z" fill="#e2e2f0" stroke="#e2e2f0" stroke-width="1.51"/><path d="M295,762L403,868L410,756Z" fill="#a9a1ce" stroke="#a9a1ce" stroke-width="1.51"/><path d="M293,652L295,762L410,756Z" fill="#afabd3" stroke="#afabd3" stroke-width="1.51"/><path d="M297,1094L306,1204L411,1083Z" fill="#987cbb" stroke="#987cbb" stroke-width="1.51"/><path d="M299,982L297,1094L411,1083Z" fill="#9c83c0" stroke="#9c83c0" stroke-width="1.51"/><path d="M403,868L301,870L411,978Z" fill="#a393c7" stroke="#a393c7" stroke-width="1.51"/><path d="M301,870L299,982L411,978Z" fill="#a290c5" stroke="#a290c5" stroke-width="1.51"/><path d="M299,982L411,1083L411,978Z" fill="#9d86c1" stroke="#9d86c1" stroke-width="1.51"/><path d="M411,1083L306,1204L414,1207Z" fill="#9577b8" stroke="#9577b8" stroke-width="1.51"/><path d="M301,-124L294,-17L415,-113Z" fill="#e9e8f3" stroke="#e9e8f3" stroke-width="1.51"/><path d="M294,211L403,313L415,210Z" fill="#d5d5e9" stroke="#d5d5e9" stroke-width="1.51"/><path d="M407,95L306,106L415,210Z" fill="#dcdcec" stroke="#dcdcec" stroke-width="1.51"/><path d="M306,106L294,211L415,210Z" fill="#dcdcec" stroke="#dcdcec" stroke-width="1.51"/><path d="M293,652L410,756L416,655Z" fill="#b0add4" stroke="#b0add4" stroke-width="1.51"/><path d="M404,541L293,652L416,655Z" fill="#b6b4d6" stroke="#b6b4d6" stroke-width="1.51"/><path d="M415,-113L294,-17L416,-10Z" fill="#e7e5f1" stroke="#e7e5f1" stroke-width="1.51"/><path d="M294,-17L407,95L416,-10Z" fill="#e4e3ef" stroke="#e4e3ef" stroke-width="1.51"/><path d="M184,534L187,655L293,652Z" fill="#bcb9d9" stroke="#bcb9d9" stroke-width="1.51"/><path d="M187,-4L195,106L294,-17Z" fill="#e8e7f2" stroke="#e8e7f2" stroke-width="1.51"/><path d="M185,-114L187,-4L294,-17Z" fill="#ecebf4" stroke="#ecebf4" stroke-width="1.51"/><path d="M195,106L187,217L294,211Z" fill="#e0dfee" stroke="#e0dfee" stroke-width="1.51"/><path d="M187,217L192,318L294,211Z" fill="#dad9ea" stroke="#dad9ea" stroke-width="1.51"/><path d="M183,765L188,867L295,762Z" fill="#afa5d1" stroke="#afa5d1" stroke-width="1.51"/><path d="M293,652L187,655L295,762Z" fill="#b4b1d5" stroke="#b4b1d5" stroke-width="1.51"/><path d="M187,655L183,765L295,762Z" fill="#b3afd5" stroke="#b3afd5" stroke-width="1.51"/><path d="M185,428L184,534L296,430Z" fill="#c8c7e0" stroke="#c8c7e0" stroke-width="1.51"/><path d="M192,318L185,428L296,430Z" fill="#cecde5" stroke="#cecde5" stroke-width="1.51"/><path d="M187,1089L196,1198L297,1094Z" fill="#9c7fbd" stroke="#9c7fbd" stroke-width="1.51"/><path d="M192,981L187,1089L297,1094Z" fill="#a085c1" stroke="#a085c1" stroke-width="1.51"/><path d="M192,318L296,430L299,322Z" fill="#d0d0e5" stroke="#d0d0e5" stroke-width="1.51"/><path d="M294,211L192,318L299,322Z" fill="#d6d5e9" stroke="#d6d5e9" stroke-width="1.51"/><path d="M192,981L297,1094L299,982Z" fill="#a189c2" stroke="#a189c2" stroke-width="1.51"/><path d="M185,-114L294,-17L301,-124Z" fill="#ecebf4" stroke="#ecebf4" stroke-width="1.51"/><path d="M295,762L188,867L301,870Z" fill="#ab9fcd" stroke="#ab9fcd" stroke-width="1.51"/><path d="M192,981L299,982L301,870Z" fill="#a591c7" stroke="#a591c7" stroke-width="1.51"/><path d="M188,867L192,981L301,870Z" fill="#a897c9" stroke="#a897c9" stroke-width="1.51"/><path d="M296,430L184,534L303,540Z" fill="#c3c1dd" stroke="#c3c1dd" stroke-width="1.51"/><path d="M184,534L293,652L303,540Z" fill="#bdbada" stroke="#bdbada" stroke-width="1.51"/><path d="M195,106L294,211L306,106Z" fill="#e1e0ee" stroke="#e1e0ee" stroke-width="1.51"/><path d="M294,-17L195,106L306,106Z" fill="#e5e4f0" stroke="#e5e4f0" stroke-width="1.51"/><path d="M297,1094L196,1198L306,1204Z" fill="#997bba" stroke="#997bba" stroke-width="1.51"/><path d="M81,758L75,873L183,765Z" fill="#b2a8d2" stroke="#b2a8d2" stroke-width="1.51"/><path d="M79,430L85,539L184,534Z" fill="#c9c6e0" stroke="#c9c6e0" stroke-width="1.51"/><path d="M79,430L184,534L185,428Z" fill="#cbc9e1" stroke="#cbc9e1" stroke-width="1.51"/><path d="M77,320L79,430L185,428Z" fill="#d2d1e6" stroke="#d2d1e6" stroke-width="1.51"/><path d="M78,-124L78,-12L185,-114Z" fill="#f1f0f6" stroke="#f1f0f6" stroke-width="1.51"/><path d="M185,-114L78,-12L187,-4Z" fill="#eeedf5" stroke="#eeedf5" stroke-width="1.51"/><path d="M78,-12L82,102L187,-4Z" fill="#edebf4" stroke="#edebf4" stroke-width="1.51"/><path d="M84,978L75,1086L187,1089Z" fill="#a489c3" stroke="#a489c3" stroke-width="1.51"/><path d="M75,1086L77,1205L187,1089Z" fill="#a182bf" stroke="#a182bf" stroke-width="1.51"/><path d="M82,214L77,320L187,217Z" fill="#deddec" stroke="#deddec" stroke-width="1.51"/><path d="M82,102L82,214L187,217Z" fill="#e4e3ef" stroke="#e4e3ef" stroke-width="1.51"/><path d="M81,758L183,765L187,655Z" fill="#b5b0d6" stroke="#b5b0d6" stroke-width="1.51"/><path d="M78,651L81,758L187,655Z" fill="#b9b6d8" stroke="#b9b6d8" stroke-width="1.51"/><path d="M184,534L85,539L187,655Z" fill="#c1bedc" stroke="#c1bedc" stroke-width="1.51"/><path d="M85,539L78,651L187,655Z" fill="#bfbbdb" stroke="#bfbbdb" stroke-width="1.51"/><path d="M183,765L75,873L188,867Z" fill="#afa2cf" stroke="#afa2cf" stroke-width="1.51"/><path d="M75,873L84,978L188,867Z" fill="#ac9bcb" stroke="#ac9bcb" stroke-width="1.51"/><path d="M187,217L77,320L192,318Z" fill="#dad9ea" stroke="#dad9ea" stroke-width="1.51"/><path d="M77,320L185,428L192,318Z" fill="#d4d3e7" stroke="#d4d3e7" stroke-width="1.51"/><path d="M188,867L84,978L192,981Z" fill="#a995c9" stroke="#a995c9" stroke-width="1.51"/><path d="M84,978L187,1089L192,981Z" fill="#a58cc5" stroke="#a58cc5" stroke-width="1.51"/><path d="M82,102L187,217L195,106Z" fill="#e5e3f0" stroke="#e5e3f0" stroke-width="1.51"/><path d="M187,-4L82,102L195,106Z" fill="#e9e7f2" stroke="#e9e7f2" stroke-width="1.51"/><path d="M187,1089L77,1205L196,1198Z" fill="#9d7ebc" stroke="#9d7ebc" stroke-width="1.51"/><path d="M-31,865L-33,980L75,873Z" fill="#af9dcd" stroke="#af9dcd" stroke-width="1.51"/><path d="M-33,980L-25,1089L75,1086Z" fill="#a78cc5" stroke="#a78cc5" stroke-width="1.51"/><path d="M-27,315L-36,425L77,320Z" fill="#d8d7ea" stroke="#d8d7ea" stroke-width="1.51"/><path d="M75,1086L-25,1089L77,1205Z" fill="#a284c0" stroke="#a284c0" stroke-width="1.51"/><path d="M-25,1089L-33,1197L77,1205Z" fill="#a182be" stroke="#a182be" stroke-width="1.51"/><path d="M-28,-125L-30,-10L78,-12Z" fill="#f3f1f7" stroke="#f3f1f7" stroke-width="1.51"/><path d="M-33,642L-35,756L78,651Z" fill="#bdb8da" stroke="#bdb8da" stroke-width="1.51"/><path d="M-35,544L-33,642L78,651Z" fill="#c2bedd" stroke="#c2bedd" stroke-width="1.51"/><path d="M-28,-125L78,-12L78,-124Z" fill="#f3f1f7" stroke="#f3f1f7" stroke-width="1.51"/><path d="M77,320L-36,425L79,430Z" fill="#d4d3e8" stroke="#d4d3e8" stroke-width="1.51"/><path d="M-36,425L-35,544L79,430Z" fill="#cecce4" stroke="#cecce4" stroke-width="1.51"/><path d="M-31,865L75,873L81,758Z" fill="#b2a6d1" stroke="#b2a6d1" stroke-width="1.51"/><path d="M-35,756L-31,865L81,758Z" fill="#b5acd3" stroke="#b5acd3" stroke-width="1.51"/><path d="M78,651L-35,756L81,758Z" fill="#b9b4d8" stroke="#b9b4d8" stroke-width="1.51"/><path d="M-33,106L-30,215L82,214Z" fill="#e6e5f1" stroke="#e6e5f1" stroke-width="1.51"/><path d="M-27,315L77,320L82,214Z" fill="#dddced" stroke="#dddced" stroke-width="1.51"/><path d="M-30,215L-27,315L82,214Z" fill="#e1e0ef" stroke="#e1e0ef" stroke-width="1.51"/><path d="M78,-12L-30,-10L82,102Z" fill="#eeedf5" stroke="#eeedf5" stroke-width="1.51"/><path d="M-30,-10L-33,106L82,102Z" fill="#edebf5" stroke="#edebf5" stroke-width="1.51"/><path d="M-33,106L82,214L82,102Z" fill="#e8e6f1" stroke="#e8e6f1" stroke-width="1.51"/><path d="M-33,980L75,1086L84,978Z" fill="#a88fc6" stroke="#a88fc6" stroke-width="1.51"/><path d="M75,873L-33,980L84,978Z" fill="#ac98ca" stroke="#ac98ca" stroke-width="1.51"/><path d="M79,430L-35,544L85,539Z" fill="#cac7e1" stroke="#cac7e1" stroke-width="1.51"/><path d="M-35,544L78,651L85,539Z" fill="#c4c0dd" stroke="#c4c0dd" stroke-width="1.51"/><path d="M-135,425L-143,536L-36,425Z" fill="#d1cfe5" stroke="#d1cfe5" stroke-width="1.51"/><path d="M-140,322L-135,425L-36,425Z" fill="#d7d7ea" stroke="#d7d7ea" stroke-width="1.51"/><path d="M-36,425L-143,536L-35,544Z" fill="#cdcae3" stroke="#cdcae3" stroke-width="1.51"/><path d="M-143,536L-139,651L-35,544Z" fill="#c8c4e0" stroke="#c8c4e0" stroke-width="1.51"/><path d="M-139,651L-135,758L-35,756Z" fill="#bcb8da" stroke="#bcb8da" stroke-width="1.51"/><path d="M-135,977L-137,1096L-33,980Z" fill="#ac92c8" stroke="#ac92c8" stroke-width="1.51"/><path d="M-135,99L-142,213L-33,106Z" fill="#ebebf3" stroke="#ebebf3" stroke-width="1.51"/><path d="M-137,1096L-134,1196L-33,1197Z" fill="#a484c0" stroke="#a484c0" stroke-width="1.51"/><path d="M-139,651L-35,756L-33,642Z" fill="#bebadb" stroke="#bebadb" stroke-width="1.51"/><path d="M-35,544L-139,651L-33,642Z" fill="#c4c0de" stroke="#c4c0de" stroke-width="1.51"/><path d="M-35,756L-135,758L-31,865Z" fill="#b7aed4" stroke="#b7aed4" stroke-width="1.51"/><path d="M-135,758L-147,876L-31,865Z" fill="#b5a9d2" stroke="#b5a9d2" stroke-width="1.51"/><path d="M-135,977L-33,980L-31,865Z" fill="#ae9bcc" stroke="#ae9bcc" stroke-width="1.51"/><path d="M-147,876L-135,977L-31,865Z" fill="#b1a0ce" stroke="#b1a0ce" stroke-width="1.51"/><path d="M-135,99L-33,106L-30,-10Z" fill="#efedf6" stroke="#efedf6" stroke-width="1.51"/><path d="M-142,-9L-135,99L-30,-10Z" fill="#f2f0f7" stroke="#f2f0f7" stroke-width="1.51"/><path d="M-143,-122L-142,-9L-30,-10Z" fill="#f5f4f9" stroke="#f5f4f9" stroke-width="1.51"/><path d="M-33,106L-142,213L-30,215Z" fill="#e8e7f2" stroke="#e8e7f2" stroke-width="1.51"/><path d="M-142,213L-140,322L-30,215Z" fill="#e3e3ef" stroke="#e3e3ef" stroke-width="1.51"/><path d="M-143,-122L-30,-10L-28,-125Z" fill="#f6f4f9" stroke="#f6f4f9" stroke-width="1.51"/><path d="M-30,215L-140,322L-27,315Z" fill="#dfdfed" stroke="#dfdfed" stroke-width="1.51"/><path d="M-140,322L-36,425L-27,315Z" fill="#d9d9eb" stroke="#d9d9eb" stroke-width="1.51"/><path d="M-137,1096L-33,1197L-25,1089Z" fill="#a487c1" stroke="#a487c1" stroke-width="1.51"/><path d="M-33,980L-137,1096L-25,1089Z" fill="#a88dc5" stroke="#a88dc5" stroke-width="1.51"/><path d="M-147,876L-137,1096L-135,977Z" fill="#ae97ca" stroke="#ae97ca" stroke-width="1.51"/><path d="M-137,1096L-147,876L-134,1196Z" fill="#aa8ec6" stroke="#aa8ec6" stroke-width="1.51"/><path d="M-140,322L-143,536L-135,425Z" fill="#d5d3e8" stroke="#d5d3e8" stroke-width="1.51"/><path d="M-139,651L-147,876L-135,758Z" fill="#bbb3d7" stroke="#bbb3d7" stroke-width="1.51"/><path d="M-142,-9L-142,213L-135,99Z" fill="#efedf5" stroke="#efedf5" stroke-width="1.51"/><path d="M-143,536L-147,876L-139,651Z" fill="#bfbbdc" stroke="#bfbbdc" stroke-width="1.51"/><path d="M-142,213L-143,536L-140,322Z" fill="#dbdbec" stroke="#dbdbec" stroke-width="1.51"/><path d="M-143,-122L-142,213L-142,-9Z" fill="#f3f1f8" stroke="#f3f1f8" stroke-width="1.51"/></svg>